<svg xmlns="http://www.w3.org/2000/svg" xmlns:xlink="http://www.w3.org/1999/xlink" width="500" zoomAndPan="magnify" viewBox="0 0 375 374.999991" height="500" preserveAspectRatio="xMidYMid meet" version="1.0"><defs><g/><clipPath id="3dd4a2957b"><path d="M 181.242188 200.445312 L 222.542969 200.445312 L 222.542969 241.746094 L 181.242188 241.746094 Z M 181.242188 200.445312 " clip-rule="nonzero"/></clipPath><clipPath id="dfb7c98ab2"><path d="M 201.890625 200.445312 C 190.488281 200.445312 181.242188 209.691406 181.242188 221.097656 C 181.242188 232.5 190.488281 241.746094 201.890625 241.746094 C 213.296875 241.746094 222.542969 232.5 222.542969 221.097656 C 222.542969 209.691406 213.296875 200.445312 201.890625 200.445312 Z M 201.890625 200.445312 " clip-rule="nonzero"/></clipPath><clipPath id="dcb4437649"><path d="M 22.003906 61.808594 L 95.824219 61.808594 L 95.824219 135.628906 L 22.003906 135.628906 Z M 22.003906 61.808594 " clip-rule="nonzero"/></clipPath><clipPath id="0fa565c7e0"><path d="M 58.914062 61.808594 C 38.53125 61.808594 22.003906 78.335938 22.003906 98.71875 C 22.003906 119.105469 38.53125 135.628906 58.914062 135.628906 C 79.300781 135.628906 95.824219 119.105469 95.824219 98.71875 C 95.824219 78.335938 79.300781 61.808594 58.914062 61.808594 Z M 58.914062 61.808594 " clip-rule="nonzero"/></clipPath><clipPath id="7e016e97fb"><path d="M 300.589844 70.679688 L 374.410156 70.679688 L 374.410156 144.503906 L 300.589844 144.503906 Z M 300.589844 70.679688 " clip-rule="nonzero"/></clipPath><clipPath id="e625dfb1d6"><path d="M 337.5 70.679688 C 317.113281 70.679688 300.589844 87.207031 300.589844 107.589844 C 300.589844 127.976562 317.113281 144.503906 337.5 144.503906 C 357.886719 144.503906 374.410156 127.976562 374.410156 107.589844 C 374.410156 87.207031 357.886719 70.679688 337.5 70.679688 Z M 337.5 70.679688 " clip-rule="nonzero"/></clipPath><clipPath id="e2e680705e"><path d="M 279.9375 200.445312 L 321.238281 200.445312 L 321.238281 241.746094 L 279.9375 241.746094 Z M 279.9375 200.445312 " clip-rule="nonzero"/></clipPath><clipPath id="767f273c9d"><path d="M 300.589844 200.445312 C 289.183594 200.445312 279.9375 209.691406 279.9375 221.097656 C 279.9375 232.5 289.183594 241.746094 300.589844 241.746094 C 311.992188 241.746094 321.238281 232.5 321.238281 221.097656 C 321.238281 209.691406 311.992188 200.445312 300.589844 200.445312 Z M 300.589844 200.445312 " clip-rule="nonzero"/></clipPath><clipPath id="b6b6411d20"><path d="M 291.867188 212.375 L 309.3125 212.375 L 309.3125 229.820312 L 291.867188 229.820312 Z M 291.867188 212.375 " clip-rule="nonzero"/></clipPath><clipPath id="e2d25cee47"><path d="M 300.589844 212.375 C 295.773438 212.375 291.867188 216.277344 291.867188 221.097656 C 291.867188 225.914062 295.773438 229.820312 300.589844 229.820312 C 305.40625 229.820312 309.3125 225.914062 309.3125 221.097656 C 309.3125 216.277344 305.40625 212.375 300.589844 212.375 Z M 300.589844 212.375 " clip-rule="nonzero"/></clipPath></defs><g fill="#ffffff" fill-opacity="1"><g transform="translate(125.982141, 220.849733)"><g><path d="M 35.703125 -118.75 L 35.703125 -23.75 L 76.578125 -23.75 L 76.578125 0 L 8.640625 0 L 8.640625 -118.75 Z M 35.703125 -118.75 "/></g></g></g><g clip-path="url(#3dd4a2957b)"><g clip-path="url(#dfb7c98ab2)"><path fill="#000000" d="M 181.242188 200.445312 L 222.542969 200.445312 L 222.542969 241.746094 L 181.242188 241.746094 Z M 181.242188 200.445312 " fill-opacity="1" fill-rule="nonzero"/></g></g><g fill="#ffffff" fill-opacity="1"><g transform="translate(171.327518, 220.849733)"><g><path d="M 99.75 0 L 80.75 -66.640625 L 61.75 0 L 31.671875 0 L -2.15625 -118.75 L 27.921875 -118.75 L 48.21875 -37.28125 L 48.9375 -37.28125 L 70.53125 -118.75 L 90.96875 -118.75 L 112.5625 -37.28125 L 113.28125 -37.28125 L 133.578125 -118.75 L 163.515625 -118.75 L 129.6875 0 Z M 99.75 0 "/></g></g></g><g fill="#ffffff" fill-opacity="1"><g transform="translate(52.668864, 220.849733)"><g><path d="M 8.640625 -118.75 L 43.03125 -118.75 C 59.539062 -118.75 73.648438 -113.109375 85.359375 -101.828125 C 97.066406 -90.554688 102.921875 -76.429688 102.921875 -59.453125 C 102.921875 -42.367188 97.085938 -28.1875 85.421875 -16.90625 C 73.765625 -5.632812 59.632812 0 43.03125 0 L 8.640625 0 Z M 35.703125 -24.1875 L 39.875 -24.1875 C 49.757812 -24.1875 57.84375 -27.519531 64.125 -34.1875 C 70.40625 -40.851562 73.597656 -49.222656 73.703125 -59.296875 C 73.703125 -69.378906 70.554688 -77.773438 64.265625 -84.484375 C 57.984375 -91.203125 49.851562 -94.5625 39.875 -94.5625 L 35.703125 -94.5625 Z M 35.703125 -24.1875 "/></g></g></g><g clip-path="url(#dcb4437649)"><g clip-path="url(#0fa565c7e0)"><path fill="#000000" d="M 22.003906 61.808594 L 95.824219 61.808594 L 95.824219 135.628906 L 22.003906 135.628906 Z M 22.003906 61.808594 " fill-opacity="1" fill-rule="nonzero"/></g></g><g clip-path="url(#7e016e97fb)"><g clip-path="url(#e625dfb1d6)"><path fill="#000000" d="M 300.589844 70.679688 L 374.410156 70.679688 L 374.410156 144.503906 L 300.589844 144.503906 Z M 300.589844 70.679688 " fill-opacity="1" fill-rule="nonzero"/></g></g><g clip-path="url(#e2e680705e)"><g clip-path="url(#767f273c9d)"><path fill="#000000" d="M 279.9375 200.445312 L 321.238281 200.445312 L 321.238281 241.746094 L 279.9375 241.746094 Z M 279.9375 200.445312 " fill-opacity="1" fill-rule="nonzero"/></g></g><g clip-path="url(#b6b6411d20)"><g clip-path="url(#e2d25cee47)"><path fill="#ffffff" d="M 291.867188 212.375 L 309.3125 212.375 L 309.3125 229.820312 L 291.867188 229.820312 Z M 291.867188 212.375 " fill-opacity="1" fill-rule="nonzero"/></g></g></svg>