<svg xmlns="http://www.w3.org/2000/svg" xmlns:xlink="http://www.w3.org/1999/xlink" width="500" zoomAndPan="magnify"
     viewBox="0 0 375 374.999991" height="500" preserveAspectRatio="xMidYMid meet" version="1.0">
    <defs>
        <g/>
        <clipPath id="e10ec2fd7f">
            <path d="M 181.945312 221.867188 L 220.300781 221.867188 L 220.300781 260.21875 L 181.945312 260.21875 Z M 181.945312 221.867188 "
                  clip-rule="nonzero"/>
        </clipPath>
        <clipPath id="90bd6234a4">
            <path d="M 201.125 221.867188 C 190.53125 221.867188 181.945312 230.453125 181.945312 241.042969 C 181.945312 251.632812 190.53125 260.21875 201.125 260.21875 C 211.714844 260.21875 220.300781 251.632812 220.300781 241.042969 C 220.300781 230.453125 211.714844 221.867188 201.125 221.867188 Z M 201.125 221.867188 "
                  clip-rule="nonzero"/>
        </clipPath>
        <clipPath id="88d83663aa">
            <path d="M 282.773438 85.613281 L 351.386719 85.613281 L 351.386719 154.226562 L 282.773438 154.226562 Z M 282.773438 85.613281 "
                  clip-rule="nonzero"/>
        </clipPath>
        <clipPath id="c00a526ee6">
            <path d="M 317.078125 85.613281 C 298.132812 85.613281 282.773438 100.972656 282.773438 119.917969 C 282.773438 138.867188 298.132812 154.226562 317.078125 154.226562 C 336.027344 154.226562 351.386719 138.867188 351.386719 119.917969 C 351.386719 100.972656 336.027344 85.613281 317.078125 85.613281 Z M 317.078125 85.613281 "
                  clip-rule="nonzero"/>
        </clipPath>
        <clipPath id="e4077f7eb4">
            <path d="M 271.53125 221.867188 L 309.886719 221.867188 L 309.886719 260.21875 L 271.53125 260.21875 Z M 271.53125 221.867188 "
                  clip-rule="nonzero"/>
        </clipPath>
        <clipPath id="87b97f8d6e">
            <path d="M 290.707031 221.867188 C 280.117188 221.867188 271.53125 230.453125 271.53125 241.042969 C 271.53125 251.632812 280.117188 260.21875 290.707031 260.21875 C 301.300781 260.21875 309.886719 251.632812 309.886719 241.042969 C 309.886719 230.453125 301.300781 221.867188 290.707031 221.867188 Z M 290.707031 221.867188 "
                  clip-rule="nonzero"/>
        </clipPath>
        <clipPath id="3845adc4b2">
            <path d="M 9.648438 95.992188 L 78.261719 95.992188 L 78.261719 164.605469 L 9.648438 164.605469 Z M 9.648438 95.992188 "
                  clip-rule="nonzero"/>
        </clipPath>
        <clipPath id="9557a359a2">
            <path d="M 43.953125 95.992188 C 25.007812 95.992188 9.648438 111.351562 9.648438 130.296875 C 9.648438 149.246094 25.007812 164.605469 43.953125 164.605469 C 62.902344 164.605469 78.261719 149.246094 78.261719 130.296875 C 78.261719 111.351562 62.902344 95.992188 43.953125 95.992188 Z M 43.953125 95.992188 "
                  clip-rule="nonzero"/>
        </clipPath>
        <clipPath id="f41cde2e4d">
            <path d="M 282.605469 232.941406 L 298.808594 232.941406 L 298.808594 249.144531 L 282.605469 249.144531 Z M 282.605469 232.941406 "
                  clip-rule="nonzero"/>
        </clipPath>
        <clipPath id="95da4aca96">
            <path d="M 290.707031 232.941406 C 286.234375 232.941406 282.605469 236.570312 282.605469 241.042969 C 282.605469 245.515625 286.234375 249.144531 290.707031 249.144531 C 295.179688 249.144531 298.808594 245.515625 298.808594 241.042969 C 298.808594 236.570312 295.179688 232.941406 290.707031 232.941406 Z M 290.707031 232.941406 "
                  clip-rule="nonzero"/>
        </clipPath>
    </defs>
    <g fill="#000000" fill-opacity="1">
        <g transform="translate(128.549733, 240.814035)">
            <g>
                <path d="M 33.15625 -110.28125 L 33.15625 -22.0625 L 71.109375 -22.0625 L 71.109375 0 L 8.015625 0 L 8.015625 -110.28125 Z M 33.15625 -110.28125 "/>
            </g>
        </g>
    </g>
    <g clip-path="url(#e10ec2fd7f)">
        <g clip-path="url(#90bd6234a4)">
            <path fill="#ffffff"
                  d="M 181.945312 221.867188 L 220.300781 221.867188 L 220.300781 260.21875 L 181.945312 260.21875 Z M 181.945312 221.867188 "
                  fill-opacity="1" fill-rule="nonzero"/>
        </g>
    </g>
    <g fill="#000000" fill-opacity="1">
        <g transform="translate(170.662013, 240.814035)">
            <g>
                <path d="M 92.640625 0 L 74.984375 -61.890625 L 57.34375 0 L 29.40625 0 L -2 -110.28125 L 25.9375 -110.28125 L 44.78125 -34.625 L 45.453125 -34.625 L 65.5 -110.28125 L 84.484375 -110.28125 L 104.53125 -34.625 L 105.203125 -34.625 L 124.046875 -110.28125 L 151.84375 -110.28125 L 120.4375 0 Z M 92.640625 0 "/>
            </g>
        </g>
    </g>
    <g clip-path="url(#88d83663aa)">
        <g clip-path="url(#c00a526ee6)">
            <path fill="#ffffff"
                  d="M 282.773438 85.613281 L 351.386719 85.613281 L 351.386719 154.226562 L 282.773438 154.226562 Z M 282.773438 85.613281 "
                  fill-opacity="1" fill-rule="nonzero"/>
        </g>
    </g>
    <g clip-path="url(#e4077f7eb4)">
        <g clip-path="url(#87b97f8d6e)">
            <path fill="#ffffff"
                  d="M 271.53125 221.867188 L 309.886719 221.867188 L 309.886719 260.21875 L 271.53125 260.21875 Z M 271.53125 221.867188 "
                  fill-opacity="1" fill-rule="nonzero"/>
        </g>
    </g>
    <g fill="#000000" fill-opacity="1">
        <g transform="translate(60.463653, 240.814035)">
            <g>
                <path d="M 8.015625 -110.28125 L 39.96875 -110.28125 C 55.289062 -110.28125 68.390625 -105.039062 79.265625 -94.5625 C 90.140625 -84.09375 95.578125 -70.972656 95.578125 -55.203125 C 95.578125 -39.335938 90.160156 -26.171875 79.328125 -15.703125 C 68.503906 -5.234375 55.382812 0 39.96875 0 L 8.015625 0 Z M 33.15625 -22.453125 L 37.03125 -22.453125 C 46.207031 -22.453125 53.710938 -25.546875 59.546875 -31.734375 C 65.390625 -37.929688 68.351562 -45.710938 68.4375 -55.078125 C 68.4375 -64.429688 65.515625 -72.226562 59.671875 -78.46875 C 53.835938 -84.707031 46.289062 -87.828125 37.03125 -87.828125 L 33.15625 -87.828125 Z M 33.15625 -22.453125 "/>
            </g>
        </g>
    </g>
    <g clip-path="url(#3845adc4b2)">
        <g clip-path="url(#9557a359a2)">
            <path fill="#ffffff"
                  d="M 9.648438 95.992188 L 78.261719 95.992188 L 78.261719 164.605469 L 9.648438 164.605469 Z M 9.648438 95.992188 "
                  fill-opacity="1" fill-rule="nonzero"/>
        </g>
    </g>
    <g clip-path="url(#f41cde2e4d)">
        <g clip-path="url(#95da4aca96)">
            <path fill="#000000"
                  d="M 282.605469 232.941406 L 298.808594 232.941406 L 298.808594 249.144531 L 282.605469 249.144531 Z M 282.605469 232.941406 "
                  fill-opacity="1" fill-rule="nonzero"/>
        </g>
    </g>
</svg>