<svg xmlns="http://www.w3.org/2000/svg" xmlns:xlink="http://www.w3.org/1999/xlink" width="250" zoomAndPan="magnify" viewBox="0 0 187.5 149.999998" height="200" preserveAspectRatio="xMidYMid meet" version="1.0"><defs><g/><clipPath id="fc1c34dd27"><path d="M 90.5 89.824219 L 106.9375 89.824219 L 106.9375 106.261719 L 90.5 106.261719 Z M 90.5 89.824219 " clip-rule="nonzero"/></clipPath><clipPath id="032578665a"><path d="M 98.71875 89.824219 C 94.179688 89.824219 90.5 93.503906 90.5 98.042969 C 90.5 102.582031 94.179688 106.261719 98.71875 106.261719 C 103.257812 106.261719 106.9375 102.582031 106.9375 98.042969 C 106.9375 93.503906 103.257812 89.824219 98.71875 89.824219 Z M 98.71875 89.824219 " clip-rule="nonzero"/></clipPath><clipPath id="0a5a8d6e8d"><path d="M 20.136719 31.242188 L 49.515625 31.242188 L 49.515625 60.621094 L 20.136719 60.621094 Z M 20.136719 31.242188 " clip-rule="nonzero"/></clipPath><clipPath id="18078ceef3"><path d="M 34.828125 31.242188 C 26.714844 31.242188 20.136719 37.816406 20.136719 45.929688 C 20.136719 54.042969 26.714844 60.621094 34.828125 60.621094 C 42.9375 60.621094 49.515625 54.042969 49.515625 45.929688 C 49.515625 37.816406 42.9375 31.242188 34.828125 31.242188 Z M 34.828125 31.242188 " clip-rule="nonzero"/></clipPath><clipPath id="6400e880c0"><path d="M 137.996094 38.183594 L 167.375 38.183594 L 167.375 67.5625 L 137.996094 67.5625 Z M 137.996094 38.183594 " clip-rule="nonzero"/></clipPath><clipPath id="2f3bd04fa7"><path d="M 152.6875 38.183594 C 144.574219 38.183594 137.996094 44.761719 137.996094 52.871094 C 137.996094 60.984375 144.574219 67.5625 152.6875 67.5625 C 160.796875 67.5625 167.375 60.984375 167.375 52.871094 C 167.375 44.761719 160.796875 38.183594 152.6875 38.183594 Z M 152.6875 38.183594 " clip-rule="nonzero"/></clipPath><clipPath id="8e5221c0ff"><path d="M 129.777344 89.824219 L 146.214844 89.824219 L 146.214844 106.261719 L 129.777344 106.261719 Z M 129.777344 89.824219 " clip-rule="nonzero"/></clipPath><clipPath id="365cd65a50"><path d="M 137.996094 89.824219 C 133.457031 89.824219 129.777344 93.503906 129.777344 98.042969 C 129.777344 102.582031 133.457031 106.261719 137.996094 106.261719 C 142.535156 106.261719 146.214844 102.582031 146.214844 98.042969 C 146.214844 93.503906 142.535156 89.824219 137.996094 89.824219 Z M 137.996094 89.824219 " clip-rule="nonzero"/></clipPath><clipPath id="9901031e28"><path d="M 134.527344 94.570312 L 141.46875 94.570312 L 141.46875 101.515625 L 134.527344 101.515625 Z M 134.527344 94.570312 " clip-rule="nonzero"/></clipPath><clipPath id="a8e2bfd6ce"><path d="M 137.996094 94.570312 C 136.078125 94.570312 134.527344 96.125 134.527344 98.042969 C 134.527344 99.960938 136.078125 101.515625 137.996094 101.515625 C 139.914062 101.515625 141.46875 99.960938 141.46875 98.042969 C 141.46875 96.125 139.914062 94.570312 137.996094 94.570312 Z M 137.996094 94.570312 " clip-rule="nonzero"/></clipPath><clipPath id="82b4f20e5c"><path d="M 34.828125 47.117188 L 41.769531 47.117188 L 41.769531 54.058594 L 34.828125 54.058594 Z M 34.828125 47.117188 " clip-rule="nonzero"/></clipPath><clipPath id="5bd770260a"><path d="M 38.296875 47.117188 C 36.378906 47.117188 34.828125 48.671875 34.828125 50.585938 C 34.828125 52.503906 36.378906 54.058594 38.296875 54.058594 C 40.214844 54.058594 41.769531 52.503906 41.769531 50.585938 C 41.769531 48.671875 40.214844 47.117188 38.296875 47.117188 Z M 38.296875 47.117188 " clip-rule="nonzero"/></clipPath></defs><g fill="#059669" fill-opacity="1"><g transform="translate(68.510435, 97.944734)"><g><path d="M 14.203125 -47.25 L 14.203125 -9.453125 L 30.46875 -9.453125 L 30.46875 0 L 3.4375 0 L 3.4375 -47.25 Z M 14.203125 -47.25 "/></g></g></g><g clip-path="url(#fc1c34dd27)"><g clip-path="url(#032578665a)"><path fill="#00221c" d="M 90.5 89.824219 L 106.9375 89.824219 L 106.9375 106.261719 L 90.5 106.261719 Z M 90.5 89.824219 " fill-opacity="1" fill-rule="nonzero"/></g></g><g fill="#059669" fill-opacity="1"><g transform="translate(85.310932, 97.430722)"><g><path d="M 39.703125 0 L 32.140625 -26.515625 L 24.578125 0 L 12.609375 0 L -0.859375 -47.25 L 11.109375 -47.25 L 19.1875 -14.828125 L 19.46875 -14.828125 L 28.0625 -47.25 L 36.203125 -47.25 L 44.796875 -14.828125 L 45.078125 -14.828125 L 53.15625 -47.25 L 65.078125 -47.25 L 51.609375 0 Z M 39.703125 0 "/></g></g></g><g fill="#059669" fill-opacity="1"><g transform="translate(33.704187, 99.99534)"><g><path d="M 3.4375 -47.265625 L 17.125 -47.265625 C 23.695312 -47.265625 29.3125 -45.019531 33.96875 -40.53125 C 38.632812 -36.050781 40.96875 -30.425781 40.96875 -23.65625 C 40.96875 -16.863281 38.644531 -11.222656 34 -6.734375 C 29.363281 -2.242188 23.738281 0 17.125 0 L 3.4375 0 Z M 14.203125 -9.625 L 15.875 -9.625 C 19.800781 -9.625 23.015625 -10.953125 25.515625 -13.609375 C 28.023438 -16.265625 29.300781 -19.597656 29.34375 -23.609375 C 29.34375 -27.617188 28.085938 -30.957031 25.578125 -33.625 C 23.078125 -36.300781 19.84375 -37.640625 15.875 -37.640625 L 14.203125 -37.640625 Z M 14.203125 -9.625 "/></g></g></g><g clip-path="url(#0a5a8d6e8d)"><g clip-path="url(#18078ceef3)"><path fill="#00221c" d="M 20.136719 31.242188 L 49.515625 31.242188 L 49.515625 60.621094 L 20.136719 60.621094 Z M 20.136719 31.242188 " fill-opacity="1" fill-rule="nonzero"/></g></g><g clip-path="url(#6400e880c0)"><g clip-path="url(#2f3bd04fa7)"><path fill="#00221c" d="M 137.996094 38.183594 L 167.375 38.183594 L 167.375 67.5625 L 137.996094 67.5625 Z M 137.996094 38.183594 " fill-opacity="1" fill-rule="nonzero"/></g></g><g clip-path="url(#8e5221c0ff)"><g clip-path="url(#365cd65a50)"><path fill="#00221c" d="M 129.777344 89.824219 L 146.214844 89.824219 L 146.214844 106.261719 L 129.777344 106.261719 Z M 129.777344 89.824219 " fill-opacity="1" fill-rule="nonzero"/></g></g><g clip-path="url(#9901031e28)"><g clip-path="url(#a8e2bfd6ce)"><path fill="#059669" d="M 134.527344 94.570312 L 141.46875 94.570312 L 141.46875 101.515625 L 134.527344 101.515625 Z M 134.527344 94.570312 " fill-opacity="1" fill-rule="nonzero"/></g></g><g clip-path="url(#82b4f20e5c)"><g clip-path="url(#5bd770260a)"><path fill="#059669" d="M 34.828125 47.117188 L 41.769531 47.117188 L 41.769531 54.058594 L 34.828125 54.058594 Z M 34.828125 47.117188 " fill-opacity="1" fill-rule="nonzero"/></g></g></svg>