<svg xmlns="http://www.w3.org/2000/svg" xmlns:xlink="http://www.w3.org/1999/xlink" width="500" zoomAndPan="magnify" viewBox="0 0 375 374.999991" height="500" preserveAspectRatio="xMidYMid meet" version="1.0"><defs><g/><clipPath id="b740fccd6b"><path d="M 180.089844 212.929688 L 216.90625 212.929688 L 216.90625 249.746094 L 180.089844 249.746094 Z M 180.089844 212.929688 " clip-rule="nonzero"/></clipPath><clipPath id="f5061e4713"><path d="M 198.496094 212.929688 C 188.332031 212.929688 180.089844 221.171875 180.089844 231.339844 C 180.089844 241.503906 188.332031 249.746094 198.496094 249.746094 C 208.664062 249.746094 216.90625 241.503906 216.90625 231.339844 C 216.90625 221.171875 208.664062 212.929688 198.496094 212.929688 Z M 198.496094 212.929688 " clip-rule="nonzero"/></clipPath><clipPath id="861c6da2e4"><path d="M 22.722656 105.164062 L 88.527344 105.164062 L 88.527344 170.96875 L 22.722656 170.96875 Z M 22.722656 105.164062 " clip-rule="nonzero"/></clipPath><clipPath id="73a8389976"><path d="M 55.625 105.164062 C 37.453125 105.164062 22.722656 119.894531 22.722656 138.066406 C 22.722656 156.238281 37.453125 170.96875 55.625 170.96875 C 73.796875 170.96875 88.527344 156.238281 88.527344 138.066406 C 88.527344 119.894531 73.796875 105.164062 55.625 105.164062 Z M 55.625 105.164062 " clip-rule="nonzero"/></clipPath><clipPath id="cae07ad41d"><path d="M 286.472656 97.261719 L 352.277344 97.261719 L 352.277344 163.0625 L 286.472656 163.0625 Z M 286.472656 97.261719 " clip-rule="nonzero"/></clipPath><clipPath id="8dc6ad8718"><path d="M 319.375 97.261719 C 301.203125 97.261719 286.472656 111.992188 286.472656 130.164062 C 286.472656 148.332031 301.203125 163.0625 319.375 163.0625 C 337.546875 163.0625 352.277344 148.332031 352.277344 130.164062 C 352.277344 111.992188 337.546875 97.261719 319.375 97.261719 Z M 319.375 97.261719 " clip-rule="nonzero"/></clipPath><clipPath id="a3a9f54fd8"><path d="M 268.066406 212.929688 L 304.878906 212.929688 L 304.878906 249.746094 L 268.066406 249.746094 Z M 268.066406 212.929688 " clip-rule="nonzero"/></clipPath><clipPath id="e935153e93"><path d="M 286.472656 212.929688 C 276.308594 212.929688 268.066406 221.171875 268.066406 231.339844 C 268.066406 241.503906 276.308594 249.746094 286.472656 249.746094 C 296.640625 249.746094 304.878906 241.503906 304.878906 231.339844 C 304.878906 221.171875 296.640625 212.929688 286.472656 212.929688 Z M 286.472656 212.929688 " clip-rule="nonzero"/></clipPath><clipPath id="ced1aa292b"><path d="M 278.699219 223.5625 L 294.25 223.5625 L 294.25 239.113281 L 278.699219 239.113281 Z M 278.699219 223.5625 " clip-rule="nonzero"/></clipPath><clipPath id="202c817909"><path d="M 286.472656 223.5625 C 282.179688 223.5625 278.699219 227.042969 278.699219 231.339844 C 278.699219 235.632812 282.179688 239.113281 286.472656 239.113281 C 290.765625 239.113281 294.25 235.632812 294.25 231.339844 C 294.25 227.042969 290.765625 223.5625 286.472656 223.5625 Z M 286.472656 223.5625 " clip-rule="nonzero"/></clipPath></defs><g fill="#ffffff" fill-opacity="1"><g transform="translate(130.833406, 231.118329)"><g><path d="M 31.8125 -105.84375 L 31.8125 -21.171875 L 68.25 -21.171875 L 68.25 0 L 7.703125 0 L 7.703125 -105.84375 Z M 31.8125 -105.84375 "/></g></g></g><g clip-path="url(#b740fccd6b)"><g clip-path="url(#f5061e4713)"><path fill="#000000" d="M 180.089844 212.929688 L 216.90625 212.929688 L 216.90625 249.746094 L 180.089844 249.746094 Z M 180.089844 212.929688 " fill-opacity="1" fill-rule="nonzero"/></g></g><g fill="#ffffff" fill-opacity="1"><g transform="translate(171.253114, 231.118329)"><g><path d="M 88.90625 0 L 71.96875 -59.40625 L 55.046875 0 L 28.21875 0 L -1.921875 -105.84375 L 24.890625 -105.84375 L 42.984375 -33.234375 L 43.625 -33.234375 L 62.859375 -105.84375 L 81.078125 -105.84375 L 100.328125 -33.234375 L 100.96875 -33.234375 L 119.0625 -105.84375 L 145.75 -105.84375 L 115.59375 0 Z M 88.90625 0 "/></g></g></g><g fill="#ffffff" fill-opacity="1"><g transform="translate(65.483854, 231.118329)"><g><path d="M 7.703125 -105.84375 L 38.359375 -105.84375 C 53.066406 -105.84375 65.640625 -100.816406 76.078125 -90.765625 C 86.515625 -80.710938 91.734375 -68.117188 91.734375 -52.984375 C 91.734375 -37.765625 86.535156 -25.128906 76.140625 -15.078125 C 65.753906 -5.023438 53.160156 0 38.359375 0 L 7.703125 0 Z M 31.8125 -21.546875 L 35.53125 -21.546875 C 44.34375 -21.546875 51.550781 -24.519531 57.15625 -30.46875 C 62.757812 -36.414062 65.601562 -43.878906 65.6875 -52.859375 C 65.6875 -61.835938 62.882812 -69.320312 57.28125 -75.3125 C 51.675781 -81.300781 44.425781 -84.296875 35.53125 -84.296875 L 31.8125 -84.296875 Z M 31.8125 -21.546875 "/></g></g></g><g clip-path="url(#861c6da2e4)"><g clip-path="url(#73a8389976)"><path fill="#000000" d="M 22.722656 105.164062 L 88.527344 105.164062 L 88.527344 170.96875 L 22.722656 170.96875 Z M 22.722656 105.164062 " fill-opacity="1" fill-rule="nonzero"/></g></g><g clip-path="url(#cae07ad41d)"><g clip-path="url(#8dc6ad8718)"><path fill="#000000" d="M 286.472656 97.261719 L 352.277344 97.261719 L 352.277344 163.0625 L 286.472656 163.0625 Z M 286.472656 97.261719 " fill-opacity="1" fill-rule="nonzero"/></g></g><g clip-path="url(#a3a9f54fd8)"><g clip-path="url(#e935153e93)"><path fill="#000000" d="M 268.066406 212.929688 L 304.878906 212.929688 L 304.878906 249.746094 L 268.066406 249.746094 Z M 268.066406 212.929688 " fill-opacity="1" fill-rule="nonzero"/></g></g><g clip-path="url(#ced1aa292b)"><g clip-path="url(#202c817909)"><path fill="#ffffff" d="M 278.699219 223.5625 L 294.25 223.5625 L 294.25 239.113281 L 278.699219 239.113281 Z M 278.699219 223.5625 " fill-opacity="1" fill-rule="nonzero"/></g></g></svg>