<svg xmlns="http://www.w3.org/2000/svg" xmlns:xlink="http://www.w3.org/1999/xlink" width="500" zoomAndPan="magnify" viewBox="0 0 375 374.999991" height="500" preserveAspectRatio="xMidYMid meet" version="1.0"><defs><g/><clipPath id="dc8bd8765a"><path d="M 180.089844 212.929688 L 216.90625 212.929688 L 216.90625 249.746094 L 180.089844 249.746094 Z M 180.089844 212.929688 " clip-rule="nonzero"/></clipPath><clipPath id="e75e2b3337"><path d="M 198.496094 212.929688 C 188.332031 212.929688 180.089844 221.171875 180.089844 231.339844 C 180.089844 241.503906 188.332031 249.746094 198.496094 249.746094 C 208.664062 249.746094 216.90625 241.503906 216.90625 231.339844 C 216.90625 221.171875 208.664062 212.929688 198.496094 212.929688 Z M 198.496094 212.929688 " clip-rule="nonzero"/></clipPath><clipPath id="d98f050785"><path d="M 18.691406 92.144531 L 84.492188 92.144531 L 84.492188 157.945312 L 18.691406 157.945312 Z M 18.691406 92.144531 " clip-rule="nonzero"/></clipPath><clipPath id="499ac4b006"><path d="M 51.59375 92.144531 C 33.421875 92.144531 18.691406 106.875 18.691406 125.042969 C 18.691406 143.214844 33.421875 157.945312 51.59375 157.945312 C 69.761719 157.945312 84.492188 143.214844 84.492188 125.042969 C 84.492188 106.875 69.761719 92.144531 51.59375 92.144531 Z M 51.59375 92.144531 " clip-rule="nonzero"/></clipPath><clipPath id="9c36b6e410"><path d="M 286.472656 97.261719 L 352.277344 97.261719 L 352.277344 163.0625 L 286.472656 163.0625 Z M 286.472656 97.261719 " clip-rule="nonzero"/></clipPath><clipPath id="dd3a27b1b1"><path d="M 319.375 97.261719 C 301.203125 97.261719 286.472656 111.992188 286.472656 130.164062 C 286.472656 148.332031 301.203125 163.0625 319.375 163.0625 C 337.546875 163.0625 352.277344 148.332031 352.277344 130.164062 C 352.277344 111.992188 337.546875 97.261719 319.375 97.261719 Z M 319.375 97.261719 " clip-rule="nonzero"/></clipPath><clipPath id="ec2f56c905"><path d="M 268.066406 212.929688 L 304.878906 212.929688 L 304.878906 249.746094 L 268.066406 249.746094 Z M 268.066406 212.929688 " clip-rule="nonzero"/></clipPath><clipPath id="5ce5b651be"><path d="M 286.472656 212.929688 C 276.308594 212.929688 268.066406 221.171875 268.066406 231.339844 C 268.066406 241.503906 276.308594 249.746094 286.472656 249.746094 C 296.640625 249.746094 304.878906 241.503906 304.878906 231.339844 C 304.878906 221.171875 296.640625 212.929688 286.472656 212.929688 Z M 286.472656 212.929688 " clip-rule="nonzero"/></clipPath><clipPath id="c06dcfae4e"><path d="M 278.699219 223.5625 L 294.25 223.5625 L 294.25 239.113281 L 278.699219 239.113281 Z M 278.699219 223.5625 " clip-rule="nonzero"/></clipPath><clipPath id="3136c64d3a"><path d="M 286.472656 223.5625 C 282.179688 223.5625 278.699219 227.042969 278.699219 231.339844 C 278.699219 235.632812 282.179688 239.113281 286.472656 239.113281 C 290.765625 239.113281 294.25 235.632812 294.25 231.339844 C 294.25 227.042969 290.765625 223.5625 286.472656 223.5625 Z M 286.472656 223.5625 " clip-rule="nonzero"/></clipPath></defs><g fill="#ffffff" fill-opacity="1"><g transform="translate(130.833413, 231.118329)"><g><path d="M 31.8125 -105.84375 L 31.8125 -21.171875 L 68.25 -21.171875 L 68.25 0 L 7.703125 0 L 7.703125 -105.84375 Z M 31.8125 -105.84375 "/></g></g></g><g clip-path="url(#dc8bd8765a)"><g clip-path="url(#e75e2b3337)"><path fill="#000000" d="M 180.089844 212.929688 L 216.90625 212.929688 L 216.90625 249.746094 L 180.089844 249.746094 Z M 180.089844 212.929688 " fill-opacity="1" fill-rule="nonzero"/></g></g><g fill="#ffffff" fill-opacity="1"><g transform="translate(171.253114, 231.118329)"><g><path d="M 88.90625 0 L 71.96875 -59.40625 L 55.046875 0 L 28.21875 0 L -1.921875 -105.84375 L 24.890625 -105.84375 L 42.984375 -33.234375 L 43.625 -33.234375 L 62.859375 -105.84375 L 81.078125 -105.84375 L 100.328125 -33.234375 L 100.96875 -33.234375 L 119.0625 -105.84375 L 145.75 -105.84375 L 115.59375 0 Z M 88.90625 0 "/></g></g></g><g fill="#ffffff" fill-opacity="1"><g transform="translate(65.483854, 231.118329)"><g><path d="M 7.703125 -105.84375 L 38.359375 -105.84375 C 53.066406 -105.84375 65.640625 -100.816406 76.078125 -90.765625 C 86.515625 -80.710938 91.734375 -68.117188 91.734375 -52.984375 C 91.734375 -37.765625 86.535156 -25.128906 76.140625 -15.078125 C 65.753906 -5.023438 53.160156 0 38.359375 0 L 7.703125 0 Z M 31.8125 -21.546875 L 35.53125 -21.546875 C 44.34375 -21.546875 51.550781 -24.519531 57.15625 -30.46875 C 62.757812 -36.414062 65.601562 -43.878906 65.6875 -52.859375 C 65.6875 -61.835938 62.882812 -69.320312 57.28125 -75.3125 C 51.675781 -81.300781 44.425781 -84.296875 35.53125 -84.296875 L 31.8125 -84.296875 Z M 31.8125 -21.546875 "/></g></g></g><g clip-path="url(#d98f050785)"><g clip-path="url(#499ac4b006)"><path fill="#000000" d="M 18.691406 92.144531 L 84.492188 92.144531 L 84.492188 157.945312 L 18.691406 157.945312 Z M 18.691406 92.144531 " fill-opacity="1" fill-rule="nonzero"/></g></g><g clip-path="url(#9c36b6e410)"><g clip-path="url(#dd3a27b1b1)"><path fill="#000000" d="M 286.472656 97.261719 L 352.277344 97.261719 L 352.277344 163.0625 L 286.472656 163.0625 Z M 286.472656 97.261719 " fill-opacity="1" fill-rule="nonzero"/></g></g><g clip-path="url(#ec2f56c905)"><g clip-path="url(#5ce5b651be)"><path fill="#000000" d="M 268.066406 212.929688 L 304.878906 212.929688 L 304.878906 249.746094 L 268.066406 249.746094 Z M 268.066406 212.929688 " fill-opacity="1" fill-rule="nonzero"/></g></g><g clip-path="url(#c06dcfae4e)"><g clip-path="url(#3136c64d3a)"><path fill="#ffffff" d="M 278.699219 223.5625 L 294.25 223.5625 L 294.25 239.113281 L 278.699219 239.113281 Z M 278.699219 223.5625 " fill-opacity="1" fill-rule="nonzero"/></g></g></svg>