<svg xmlns="http://www.w3.org/2000/svg" xmlns:xlink="http://www.w3.org/1999/xlink" width="1195" zoomAndPan="magnify" viewBox="0 0 896.25 620.249985" height="827" preserveAspectRatio="xMidYMid meet" version="1.0"><defs><g/><clipPath id="c85a722d62"><path d="M 443.863281 334.066406 L 534.390625 334.066406 L 534.390625 424.59375 L 443.863281 424.59375 Z M 443.863281 334.066406 " clip-rule="nonzero"/></clipPath><clipPath id="f7ac4fb052"><path d="M 489.125 334.066406 C 464.128906 334.066406 443.863281 354.332031 443.863281 379.328125 C 443.863281 404.328125 464.128906 424.59375 489.125 424.59375 C 514.125 424.59375 534.390625 404.328125 534.390625 379.328125 C 534.390625 354.332031 514.125 334.066406 489.125 334.066406 Z M 489.125 334.066406 " clip-rule="nonzero"/></clipPath><clipPath id="b08282d1ab"><path d="M 705.472656 49.617188 L 867.289062 49.617188 L 867.289062 211.433594 L 705.472656 211.433594 Z M 705.472656 49.617188 " clip-rule="nonzero"/></clipPath><clipPath id="991f92ff09"><path d="M 786.378906 49.617188 C 741.695312 49.617188 705.472656 85.839844 705.472656 130.523438 C 705.472656 175.210938 741.695312 211.433594 786.378906 211.433594 C 831.066406 211.433594 867.289062 175.210938 867.289062 130.523438 C 867.289062 85.839844 831.066406 49.617188 786.378906 49.617188 Z M 786.378906 49.617188 " clip-rule="nonzero"/></clipPath><clipPath id="c5e70de798"><path d="M 660.207031 334.066406 L 750.734375 334.066406 L 750.734375 424.59375 L 660.207031 424.59375 Z M 660.207031 334.066406 " clip-rule="nonzero"/></clipPath><clipPath id="88ba10389e"><path d="M 705.472656 334.066406 C 680.472656 334.066406 660.207031 354.332031 660.207031 379.328125 C 660.207031 404.328125 680.472656 424.59375 705.472656 424.59375 C 730.46875 424.59375 750.734375 404.328125 750.734375 379.328125 C 750.734375 354.332031 730.46875 334.066406 705.472656 334.066406 Z M 705.472656 334.066406 " clip-rule="nonzero"/></clipPath><clipPath id="cd03b0471a"><path d="M 686.351562 360.210938 L 724.589844 360.210938 L 724.589844 398.449219 L 686.351562 398.449219 Z M 686.351562 360.210938 " clip-rule="nonzero"/></clipPath><clipPath id="2b2a27d6dc"><path d="M 705.472656 360.210938 C 694.910156 360.210938 686.351562 368.769531 686.351562 379.328125 C 686.351562 389.886719 694.910156 398.449219 705.472656 398.449219 C 716.03125 398.449219 724.589844 389.886719 724.589844 379.328125 C 724.589844 368.769531 716.03125 360.210938 705.472656 360.210938 Z M 705.472656 360.210938 " clip-rule="nonzero"/></clipPath><clipPath id="c85ef74fbf"><path d="M 36.089844 6.550781 L 197.90625 6.550781 L 197.90625 168.371094 L 36.089844 168.371094 Z M 36.089844 6.550781 " clip-rule="nonzero"/></clipPath><clipPath id="14290b6729"><path d="M 117 6.550781 C 72.3125 6.550781 36.089844 42.777344 36.089844 87.460938 C 36.089844 132.144531 72.3125 168.371094 117 168.371094 C 161.683594 168.371094 197.90625 132.144531 197.90625 87.460938 C 197.90625 42.777344 161.683594 6.550781 117 6.550781 Z M 117 6.550781 " clip-rule="nonzero"/></clipPath><clipPath id="8a34ec549b"><path d="M 117 93.992188 L 155.238281 93.992188 L 155.238281 132.230469 L 117 132.230469 Z M 117 93.992188 " clip-rule="nonzero"/></clipPath><clipPath id="ab10959bdc"><path d="M 136.117188 93.992188 C 125.558594 93.992188 117 102.550781 117 113.113281 C 117 123.671875 125.558594 132.230469 136.117188 132.230469 C 146.675781 132.230469 155.238281 123.671875 155.238281 113.113281 C 155.238281 102.550781 146.675781 93.992188 136.117188 93.992188 Z M 136.117188 93.992188 " clip-rule="nonzero"/></clipPath></defs><g fill="#059669" fill-opacity="1"><g transform="translate(321.81584, 396.851524)"><g><path d="M 79.265625 -263.671875 L 79.265625 -52.734375 L 170.03125 -52.734375 L 170.03125 0 L 19.171875 0 L 19.171875 -263.671875 Z M 79.265625 -263.671875 "/></g></g></g><g clip-path="url(#c85a722d62)"><g clip-path="url(#f7ac4fb052)"><path fill="#ffffff" d="M 443.863281 334.066406 L 534.390625 334.066406 L 534.390625 424.59375 L 443.863281 424.59375 Z M 443.863281 334.066406 " fill-opacity="1" fill-rule="nonzero"/></g></g><g fill="#059669" fill-opacity="1"><g transform="translate(404.044798, 396.85017)"><g><path d="M 221.484375 0 L 179.296875 -147.984375 L 137.109375 0 L 70.3125 0 L -4.796875 -263.671875 L 62 -263.671875 L 107.0625 -82.78125 L 108.671875 -82.78125 L 156.609375 -263.671875 L 202 -263.671875 L 249.9375 -82.78125 L 251.53125 -82.78125 L 296.59375 -263.671875 L 363.078125 -263.671875 L 287.96875 0 Z M 221.484375 0 "/></g></g></g><g fill="#059669" fill-opacity="1"><g transform="translate(116.998211, 395.102805)"><g><path d="M 19 -261.203125 L 94.671875 -261.203125 C 130.972656 -261.203125 162 -248.800781 187.75 -224 C 213.5 -199.195312 226.375 -168.117188 226.375 -130.765625 C 226.375 -93.191406 213.550781 -62.003906 187.90625 -37.203125 C 162.257812 -12.398438 131.179688 0 94.671875 0 L 19 0 Z M 78.515625 -53.1875 L 87.703125 -53.1875 C 109.441406 -53.1875 127.222656 -60.519531 141.046875 -75.1875 C 154.867188 -89.863281 161.890625 -108.28125 162.109375 -130.4375 C 162.109375 -152.601562 155.191406 -171.070312 141.359375 -185.84375 C 127.535156 -200.625 109.648438 -208.015625 87.703125 -208.015625 L 78.515625 -208.015625 Z M 78.515625 -53.1875 "/></g></g></g><g clip-path="url(#b08282d1ab)"><g clip-path="url(#991f92ff09)"><path fill="#ffffff" d="M 705.472656 49.617188 L 867.289062 49.617188 L 867.289062 211.433594 L 705.472656 211.433594 Z M 705.472656 49.617188 " fill-opacity="1" fill-rule="nonzero"/></g></g><g clip-path="url(#c5e70de798)"><g clip-path="url(#88ba10389e)"><path fill="#ffffff" d="M 660.207031 334.066406 L 750.734375 334.066406 L 750.734375 424.59375 L 660.207031 424.59375 Z M 660.207031 334.066406 " fill-opacity="1" fill-rule="nonzero"/></g></g><g clip-path="url(#cd03b0471a)"><g clip-path="url(#2b2a27d6dc)"><path fill="#059669" d="M 686.351562 360.210938 L 724.589844 360.210938 L 724.589844 398.449219 L 686.351562 398.449219 Z M 686.351562 360.210938 " fill-opacity="1" fill-rule="nonzero"/></g></g><g clip-path="url(#c85ef74fbf)"><g clip-path="url(#14290b6729)"><path fill="#ffffff" d="M 36.089844 6.550781 L 197.90625 6.550781 L 197.90625 168.371094 L 36.089844 168.371094 Z M 36.089844 6.550781 " fill-opacity="1" fill-rule="nonzero"/></g></g><g clip-path="url(#8a34ec549b)"><g clip-path="url(#ab10959bdc)"><path fill="#059669" d="M 117 93.992188 L 155.238281 93.992188 L 155.238281 132.230469 L 117 132.230469 Z M 117 93.992188 " fill-opacity="1" fill-rule="nonzero"/></g></g></svg>